<svg xmlns="http://www.w3.org/2000/svg" height="800" width="1200" version="1.0" viewBox="-85.0395 -42.3495 737.009 254.097"><g fill-rule="evenodd"><path d="M214.31 103.294c-20.031 0-36.183-16.147-36.183-36.032.004-19.84 16.148-35.988 36.183-35.988 19.888 0 36.023 16.148 36.023 35.988 0 19.885-16.138 36.032-36.023 36.032M275.276 18.3C258.413 6.627 235.489 1.736 214.31 1.736c-39.735-.004-86.285 17.01-86.285 65.093 0 6.335 1.007 12.25 2.018 17.292-8.5 9.506-22.433 18.877-39.724 18.877-22.775 0-38.912-14.548-38.912-36.894 0-20.697 15.987-35.984 36.844-35.984 10.518-.004 18.303 3.602 22.629 6.492l16.716-26.516C119.233 5.916 102.998 0 81.377 0 40.45 0 0 22.054 0 66.4c.004 44.236 36.416 67.014 80.087 67.014 27.62-.004 49.806-13.836 62.353-27.673 16.284 17.672 43.768 26.035 71.87 26.035 20.565 0 43.807-4.612 60.962-16.381l.004-97.096z" fill="#ff5404"/><path d="M482.517 105.445h-.432c-20.182-.282-36.601-15.987-36.601-38.466 0-21.572 16.859-37.427 36.597-37.573h.436c20.756 0 36.263 16.527 36.263 37.277.003 20.031-15.078 38.762-36.267 38.762m-146.04-2.73c-19.89 0-36.023-16.147-36.023-36.032 0-20.035 16.134-36.12 36.022-36.12 19.85 0 35.984 16.085 35.984 36.12 0 19.885-16.137 36.033-35.984 36.033M491.738 4.33c-3.309 0-6.481.282-9.657.579-14.84 1.718-26.516 7.06-35.59 13.393V6.495H406.61v19.16c-16.863-17.01-46.687-23.919-70.04-23.919l-.098-.004c-21.178 0-44.288 4.85-61.199 16.668l.004 96.75c16.81 11.731 39.77 16.625 61.196 16.625h.097c26.812 0 52.17-8.446 69.176-22.862l.004 60.485h40.742v-53.721c6.334 5.916 18.449 13.272 35.59 15.423 3.458.442 7.06.676 10.81.676 32.09 0 74.04-19.258 74.04-64.664 0-42.172-33.872-62.782-75.193-62.782z" fill="#ff8605"/><path d="M275.373 115.248c-14.659-10.085-25.04-25.79-25.04-48.419 0-22.43 10.095-38.148 25.037-48.527 14.847 10.379 25.08 26.097 25.08 48.527 0 22.629-10.233 38.188-25.077 48.42z" fill="#dc3002"/></g></svg>