<svg width="202" height="30" viewBox="0 0 202 30" fill="none" xmlns="http://www.w3.org/2000/svg">
<g clip-path="url(#clip0_229_953)">
<path d="M27.9225 10.5074C27.5063 10.4768 27.0882 10.4768 26.6721 10.4768C22.6785 10.4768 19.1637 11.3482 16.3176 13.042C18.7012 9.85647 19.899 5.67717 19.8243 0.77954V0H10.7646L10.7767 0.899939C10.8353 4.22828 10.0616 6.71791 8.484 8.24638C6.42966 10.2258 3.09666 10.5258 0.654481 10.4054L0 10.3707V19.4701L0.357541 19.4926C0.773661 19.5232 1.1918 19.5232 1.60792 19.5232C5.60146 19.5232 9.11626 18.6518 11.9624 16.958C9.57884 20.1435 8.38098 24.3228 8.45572 29.2205V30H17.5154L17.5033 29.1001C17.4447 25.7717 18.2184 23.2821 19.796 21.7536C21.8503 19.7742 25.1833 19.4742 27.6255 19.5946L28.28 19.6293V10.5299L27.9225 10.5074Z" fill="white"/>
<path d="M50.3567 11.2318C50.3567 14.6887 47.969 17.8824 43.8381 17.8824H39.0932V25.4309H35.3501V4.58126H43.8543C47.969 4.58126 50.3567 7.77696 50.3567 11.2318ZM39.0932 7.97082V14.4908H43.2887C45.3067 14.4908 46.5167 13.2031 46.549 11.2298C46.5167 9.25645 45.3067 7.96878 43.2887 7.96878H39.0932V7.97082ZM92.7484 22.7086C90.6032 22.7086 89.8275 22.1862 89.8275 20.3618V13.3684H93.7321V10.2707H89.3265C90.0355 9.60133 90.6658 8.67282 90.5688 6.53827H87.1793C87.1793 6.71785 87.0015 10.0115 83.9836 11.3318V13.3705H86.3066V20.7393C86.3066 24.2779 88.5165 25.841 92.0515 25.841C92.6656 25.841 93.2938 25.8084 93.9079 25.7104V22.6453C93.5039 22.678 93.1342 22.7106 92.7464 22.7106L92.7484 22.7086ZM110.478 4.59554H97.1641V25.4288H100.923V16.9029H109.767V13.5439H100.923V8.00144H110.476V4.5935L110.478 4.59554ZM116.714 9.95844H113.148V25.4451H116.714V9.95844ZM120.119 25.4472H123.685V16.6111C123.685 14.0684 125.67 12.9766 127.315 12.9766C128.783 12.9766 129.896 13.8725 129.896 16.0744V25.4472H133.461V15.6336C133.461 11.8359 131.621 9.585 128.121 9.585C126.103 9.585 124.087 10.6768 123.489 12.7154L123.214 9.96048H120.115V25.4472H120.119ZM135.916 17.6865C135.916 13.7092 138.206 9.60133 143.275 9.60133C145.598 9.60133 147.341 10.9216 147.616 12.0787L147.858 9.97477H150.989V21.8923C150.989 22.3658 151.231 22.9188 152.296 22.9025V25.5594L151.49 25.6574C149.407 25.788 147.698 24.5656 147.618 23.082V23.0494C147.181 24.484 145.327 25.837 143.277 25.837C138.194 25.837 135.918 21.4352 135.918 17.6865H135.916ZM147.535 18.1599V16.9539C147.535 14.3459 145.759 12.9113 143.598 12.9113C140.839 12.9113 139.596 15.4866 139.596 17.6722C139.596 19.8578 140.467 22.4658 143.598 22.4658C146.163 22.4821 147.535 20.5414 147.535 18.162V18.1599ZM155.209 9.95844V25.4451H158.774V16.609C158.774 14.0663 160.76 12.9746 162.404 12.9746C163.873 12.9746 164.986 13.8704 164.986 16.0723V25.4451H168.551V15.6315C168.551 11.8338 166.711 9.58296 163.21 9.58296C161.192 9.58296 159.176 10.6747 158.578 12.7134L158.303 9.95844H155.205H155.209ZM182 20.2292C181.354 22.3331 179.839 22.5433 178.869 22.5433C176.883 22.5433 174.593 21.2393 174.593 17.7824C174.593 14.3255 176.916 12.9562 178.869 12.9562C179.885 12.9562 181.467 13.2011 181.968 15.2703L185.472 14.3602C184.772 11.4298 181.909 9.66255 178.887 9.66255C174.142 9.66255 171.094 13.3296 171.094 17.7477C171.094 22.1658 173.934 25.8002 178.871 25.8329C182.099 25.8635 184.442 24.1248 185.287 21.0863L182.002 20.2251L182 20.2292ZM201.55 21.4168C200.711 23.9759 198.548 25.837 195.108 25.837C190.298 25.837 187.218 22.1699 187.218 17.7191C187.218 13.0235 190.3 9.63398 194.867 9.63398C198.047 9.6503 202 11.591 202 17.5396L201.968 18.566H190.856C190.759 20.8148 192.658 22.7392 195.078 22.7392C196.32 22.7392 197.772 22.3637 198.306 20.572L201.552 21.4168H201.55ZM191.001 16.007L198.328 15.9988C198.328 13.9929 196.788 12.5501 194.95 12.5501C192.868 12.5501 191.197 14.099 191.003 16.007H191.001ZM115.037 7.56269C116.134 7.56269 117.071 6.6505 117.071 5.54038C117.071 4.43025 116.136 3.51807 115.037 3.51807C113.973 3.51807 113.035 4.43025 113.035 5.54038C113.035 6.6505 113.971 7.56269 115.037 7.56269ZM59.2972 9.47072C54.6977 9.47072 51.4556 13.1705 51.4556 17.6538C51.4556 22.1372 54.6512 25.837 59.3295 25.837C63.9775 25.837 67.1712 22.1046 67.1712 17.6538C67.1712 13.1705 63.9755 9.47072 59.2972 9.47072ZM59.3295 22.6106C56.7964 22.6106 54.73 20.3945 54.73 17.6396C54.73 14.8846 56.7964 12.6685 59.3295 12.6685C61.8626 12.6685 63.9291 14.8846 63.9291 17.6396C63.9291 20.3945 61.8626 22.6106 59.3295 22.6106ZM76.047 25.837C80.0002 25.837 82.6302 23.6534 82.6302 20.4088C82.6302 16.7743 79.3215 16.3498 76.5137 15.9907C74.4634 15.7132 72.6575 15.4356 72.6575 13.9194C72.6575 12.8603 73.5604 12.093 75.4491 12.093C77.4348 12.093 78.4993 12.9562 78.9356 14.4887L82.3414 13.6092C81.7111 11.0012 79.5336 9.10952 75.5966 9.10952C71.6111 9.10952 69.0457 11.0339 69.0457 14.2765C69.0457 17.9436 72.3222 18.4334 75.1784 18.8742C77.2772 19.2007 78.9861 19.4619 78.9861 20.9128C78.9861 22.0699 77.9277 22.8168 76.1198 22.8168C74.2311 22.8168 72.7746 21.974 72.2898 20.2292L68.8518 21.125C69.7063 24.0759 72.5141 25.837 76.0491 25.837H76.047Z" fill="#004B5A"/>
</g>
<defs>
<clipPath id="clip0_229_953">
<rect width="202" height="30" fill="white"/>
</clipPath>
</defs>
</svg>
